{
  "accessors": [
    {
      "bufferView": 2,
      "componentType": 5126,
      "count": 2410,
      "max": [
        2.6509621143341064,
        4.925033092498779,
        7.91680908203125
      ],
      "min": [
        -2.6509621143341064,
        -1.9282439947128296,
        0.004672999959439039
      ],
      "type": "VEC3"
    },
    {
      "bufferView": 2,
      "byteOffset": 28920,
      "componentType": 5126,
      "count": 2410,
      "max": [
        0.9995944499969482,
        0.9999023675918579,
        0.9992709755897522
      ],
      "min": [
        -0.9995944499969482,
        -0.999983012676239,
        -0.9995582103729248
      ],
      "type": "VEC3"
    },
    {
      "bufferView": 3,
      "componentType": 5126,
      "count": 2410,
      "max": [
        0.9995435476303101,
        0.9995162487030029,
        0.9999693632125854,
        1.0
      ],
      "min": [
        -0.9995435476303101,
        -0.9995129108428955,
        -0.9999829530715942,
        -1.0
      ],
      "type": "VEC4"
    },
    {
      "bufferView": 1,
      "componentType": 5126,
      "count": 2410,
      "max": [
        0.9927510023117065,
        0.985945999622345
      ],
      "min": [
        0.014938999898731709,
        0.004126999992877245
      ],
      "type": "VEC2"
    },
    {
      "bufferView": 0,
      "componentType": 5125,
      "count": 11340,
      "type": "SCALAR"
    }
  ],
  "asset": {
    "extras": {
      "author": "Ida Faber (https://sketchfab.com/Ida..Faber)",
      "license": "CC-BY-4.0 (http://creativecommons.org/licenses/by/4.0/)",
      "source": "https://sketchfab.com/3d-models/pbr-low-poly-fox-character-88ed6191446749b9a9e24b995bcb5e1d",
      "title": "PBR Low-poly Fox Character"
    },
    "generator": "Sketchfab-12.66.0",
    "version": "2.0"
  },
  "bufferViews": [
    {
      "buffer": 0,
      "byteLength": 45360,
      "name": "floatBufferViews",
      "target": 34963
    },
    {
      "buffer": 0,
      "byteLength": 19280,
      "byteOffset": 45360,
      "byteStride": 8,
      "name": "floatBufferViews",
      "target": 34962
    },
    {
      "buffer": 0,
      "byteLength": 57840,
      "byteOffset": 64640,
      "byteStride": 12,
      "name": "floatBufferViews",
      "target": 34962
    },
    {
      "buffer": 0,
      "byteLength": 38560,
      "byteOffset": 122480,
      "byteStride": 16,
      "name": "floatBufferViews",
      "target": 34962
    }
  ],
  "buffers": [
    {
      "byteLength": 161040,
      "uri": "cat.bin"
    }
  ],
  "images": [
    {
      "uri": "cat-textures/initialShadingGroup_baseColor.png"
    },
    {
      "uri": "cat-textures/initialShadingGroup_metallicRoughness.png"
    },
    {
      "uri": "cat-textures/initialShadingGroup_normal.png"
    }
  ],
  "materials": [
    {
      "doubleSided": true,
      "name": "initialShadingGroup",
      "normalTexture": {
        "index": 2
      },
      "occlusionTexture": {
        "index": 1
      },
      "pbrMetallicRoughness": {
        "baseColorTexture": {
          "index": 0
        },
        "metallicRoughnessTexture": {
          "index": 1
        }
      }
    }
  ],
  "meshes": [
    {
      "name": "Object_0",
      "primitives": [
        {
          "attributes": {
            "NORMAL": 1,
            "POSITION": 0,
            "TANGENT": 2,
            "TEXCOORD_0": 3
          },
          "indices": 4,
          "material": 0,
          "mode": 4
        }
      ]
    }
  ],
  "nodes": [
    {
      "children": [
        1
      ],
      "matrix": [
        1.0,
        0.0,
        0.0,
        0.0,
        0.0,
        2.220446049250313e-16,
        -1.0,
        0.0,
        0.0,
        1.0,
        2.220446049250313e-16,
        0.0,
        0.0,
        0.0,
        0.0,
        1.0
      ],
      "name": "Sketchfab_model"
    },
    {
      "children": [
        2
      ],
      "name": "0c7632b891954c61a36a10c82efa0cf3.obj.cleaner.materialmerger.gles"
    },
    {
      "mesh": 0,
      "name": "Object_2"
    }
  ],
  "samplers": [
    {
      "magFilter": 9729,
      "minFilter": 9987,
      "wrapS": 10497,
      "wrapT": 10497
    }
  ],
  "scene": 0,
  "scenes": [
    {
      "name": "Sketchfab_Scene",
      "nodes": [
        0
      ]
    }
  ],
  "textures": [
    {
      "sampler": 0,
      "source": 0
    },
    {
      "sampler": 0,
      "source": 1
    },
    {
      "sampler": 0,
      "source": 2
    }
  ]
}
